<?xml version="1.0" encoding="utf-8"?>
<!-- Generator: Adobe Illustrator 24.1.0, SVG Export Plug-In . SVG Version: 6.00 Build 0)  -->
<svg version="1.1" id="Layer_1" xmlns="http://www.w3.org/2000/svg" xmlns:xlink="http://www.w3.org/1999/xlink" x="0px" y="0px"
	 viewBox="0 0 149.96 49.52" style="enable-background:new 0 0 149.96 49.52;" xml:space="preserve">
<style type="text/css">
	.st0{fill:#333333;}
</style>
<g>
	<g>
		<path class="st0" d="M56.85,41.31c-0.23-0.07-0.42-0.16-0.55-0.28l0.21-0.47c0.13,0.11,0.3,0.19,0.49,0.26
			c0.19,0.07,0.39,0.1,0.58,0.1c0.24,0,0.42-0.04,0.54-0.12c0.12-0.08,0.18-0.18,0.18-0.31c0-0.09-0.03-0.17-0.1-0.23
			c-0.07-0.06-0.15-0.11-0.25-0.14c-0.1-0.03-0.24-0.07-0.42-0.12c-0.25-0.06-0.45-0.12-0.6-0.18c-0.15-0.06-0.28-0.15-0.39-0.28
			c-0.11-0.12-0.16-0.29-0.16-0.51c0-0.18,0.05-0.34,0.15-0.49c0.1-0.15,0.24-0.26,0.44-0.35c0.2-0.09,0.44-0.13,0.72-0.13
			c0.2,0,0.39,0.02,0.58,0.07c0.19,0.05,0.36,0.12,0.5,0.21l-0.19,0.47c-0.14-0.08-0.29-0.15-0.44-0.19
			c-0.15-0.04-0.3-0.06-0.45-0.06c-0.24,0-0.41,0.04-0.53,0.12c-0.12,0.08-0.17,0.19-0.17,0.32c0,0.09,0.03,0.17,0.1,0.23
			c0.07,0.06,0.15,0.1,0.25,0.14c0.1,0.03,0.24,0.07,0.42,0.12c0.24,0.06,0.44,0.11,0.59,0.17c0.15,0.06,0.29,0.15,0.4,0.28
			c0.11,0.12,0.16,0.29,0.16,0.5c0,0.18-0.05,0.34-0.15,0.49c-0.1,0.15-0.24,0.26-0.44,0.35c-0.2,0.09-0.44,0.13-0.72,0.13
			C57.33,41.42,57.08,41.38,56.85,41.31z"/>
		<path class="st0" d="M60.44,38.13h0.6v3.24h-0.6V38.13z"/>
		<path class="st0" d="M65.31,40.87v0.5h-2.43v-3.24h2.37v0.5h-1.76v0.84h1.56v0.5h-1.56v0.89H65.31z"/>
		<path class="st0" d="M69.91,41.37l0-2.15L68.84,41h-0.27l-1.06-1.75v2.12h-0.57v-3.24h0.5l1.29,2.15l1.26-2.15h0.5l0,3.24H69.91z"
			/>
		<path class="st0" d="M74.38,38.27c0.21,0.09,0.37,0.23,0.48,0.4c0.11,0.17,0.17,0.38,0.17,0.62c0,0.23-0.06,0.44-0.17,0.61
			c-0.11,0.17-0.27,0.31-0.48,0.4c-0.21,0.09-0.45,0.14-0.73,0.14h-0.73v0.94h-0.6v-3.24h1.33C73.93,38.13,74.17,38.18,74.38,38.27z
			 M74.21,39.76c0.14-0.11,0.2-0.27,0.2-0.48c0-0.21-0.07-0.37-0.2-0.48c-0.14-0.11-0.33-0.17-0.6-0.17h-0.7v1.29h0.7
			C73.88,39.93,74.08,39.87,74.21,39.76z"/>
		<path class="st0" d="M78.7,41.37l-0.66-0.95c-0.03,0-0.07,0-0.13,0h-0.73v0.94h-0.6v-3.24h1.33c0.28,0,0.53,0.05,0.73,0.14
			c0.21,0.09,0.37,0.23,0.48,0.4c0.11,0.17,0.17,0.38,0.17,0.62c0,0.24-0.06,0.45-0.18,0.63c-0.12,0.18-0.29,0.31-0.51,0.39
			l0.75,1.06H78.7z M78.49,38.81c-0.14-0.11-0.33-0.17-0.6-0.17h-0.7v1.29h0.7c0.26,0,0.46-0.06,0.6-0.17
			c0.14-0.11,0.2-0.27,0.2-0.48C78.69,39.08,78.62,38.92,78.49,38.81z"/>
		<path class="st0" d="M83.35,40.87v0.5h-2.43v-3.24h2.37v0.5h-1.76v0.84h1.56v0.5h-1.56v0.89H83.35z"/>
		<path class="st0" d="M89.65,40.87v0.5h-2.43v-3.24h2.37v0.5h-1.76v0.84h1.56v0.5h-1.56v0.89H89.65z"/>
		<path class="st0" d="M91.56,41.31c-0.23-0.07-0.42-0.16-0.55-0.28l0.21-0.47c0.13,0.11,0.3,0.19,0.49,0.26
			c0.19,0.07,0.39,0.1,0.58,0.1c0.24,0,0.42-0.04,0.54-0.12C92.94,40.72,93,40.62,93,40.5c0-0.09-0.03-0.17-0.1-0.23
			c-0.07-0.06-0.15-0.11-0.25-0.14c-0.1-0.03-0.24-0.07-0.42-0.12c-0.25-0.06-0.45-0.12-0.6-0.18c-0.15-0.06-0.28-0.15-0.39-0.28
			c-0.11-0.12-0.16-0.29-0.16-0.51c0-0.18,0.05-0.34,0.15-0.49c0.1-0.15,0.24-0.26,0.44-0.35c0.2-0.09,0.44-0.13,0.72-0.13
			c0.2,0,0.39,0.02,0.58,0.07c0.19,0.05,0.36,0.12,0.5,0.21l-0.19,0.47c-0.14-0.08-0.29-0.15-0.44-0.19
			c-0.15-0.04-0.3-0.06-0.45-0.06c-0.24,0-0.41,0.04-0.53,0.12c-0.12,0.08-0.17,0.19-0.17,0.32c0,0.09,0.03,0.17,0.1,0.23
			c0.07,0.06,0.15,0.1,0.25,0.14c0.1,0.03,0.24,0.07,0.42,0.12c0.24,0.06,0.44,0.11,0.59,0.17c0.15,0.06,0.29,0.15,0.4,0.28
			c0.11,0.12,0.16,0.29,0.16,0.5c0,0.18-0.05,0.34-0.15,0.49c-0.1,0.15-0.25,0.26-0.44,0.35c-0.2,0.09-0.44,0.13-0.72,0.13
			C92.03,41.42,91.79,41.38,91.56,41.31z"/>
		<path class="st0" d="M98.04,38.64h-1.07v-0.51h2.75v0.51h-1.07v2.73h-0.6V38.64z"/>
		<path class="st0" d="M101.41,41.04c-0.25-0.25-0.38-0.61-0.38-1.08v-1.83h0.6v1.8c0,0.64,0.27,0.95,0.82,0.95
			c0.55,0,0.82-0.32,0.82-0.95v-1.8h0.59v1.83c0,0.47-0.12,0.83-0.37,1.08c-0.25,0.25-0.6,0.38-1.04,0.38S101.66,41.29,101.41,41.04
			z"/>
		<path class="st0" d="M108.57,38.64h-1.07v-0.51h2.75v0.51h-1.07v2.73h-0.6V38.64z"/>
		<path class="st0" d="M111.94,41.04c-0.25-0.25-0.38-0.61-0.38-1.08v-1.83h0.6v1.8c0,0.64,0.27,0.95,0.82,0.95
			c0.55,0,0.82-0.32,0.82-0.95v-1.8h0.59v1.83c0,0.47-0.12,0.83-0.37,1.08c-0.25,0.25-0.6,0.38-1.04,0.38
			C112.54,41.42,112.19,41.29,111.94,41.04z"/>
		<path class="st0" d="M118.32,41.37l-0.66-0.95c-0.03,0-0.07,0-0.13,0h-0.73v0.94h-0.6v-3.24h1.33c0.28,0,0.53,0.05,0.73,0.14
			c0.21,0.09,0.37,0.23,0.48,0.4c0.11,0.17,0.17,0.38,0.17,0.62c0,0.24-0.06,0.45-0.18,0.63c-0.12,0.18-0.29,0.31-0.51,0.39
			l0.75,1.06H118.32z M118.11,38.81c-0.14-0.11-0.33-0.17-0.6-0.17h-0.7v1.29h0.7c0.26,0,0.46-0.06,0.6-0.17
			c0.14-0.11,0.2-0.27,0.2-0.48C118.31,39.08,118.24,38.92,118.11,38.81z"/>
		<path class="st0" d="M123.42,38.13v3.24h-0.5l-1.79-2.19v2.19h-0.6v-3.24h0.5l1.79,2.19v-2.19H123.42z"/>
		<path class="st0" d="M125.87,41.2c-0.27-0.14-0.47-0.34-0.63-0.6c-0.15-0.25-0.23-0.54-0.23-0.85c0-0.31,0.08-0.6,0.23-0.85
			c0.15-0.25,0.36-0.45,0.63-0.6c0.27-0.14,0.56-0.22,0.89-0.22c0.33,0,0.63,0.07,0.89,0.22c0.27,0.14,0.47,0.34,0.62,0.6
			c0.15,0.25,0.23,0.54,0.23,0.86c0,0.32-0.08,0.6-0.23,0.86c-0.15,0.25-0.36,0.45-0.62,0.59c-0.27,0.14-0.56,0.22-0.89,0.22
			C126.43,41.42,126.14,41.34,125.87,41.2z M127.35,40.74c0.17-0.1,0.31-0.23,0.41-0.41c0.1-0.17,0.15-0.37,0.15-0.59
			c0-0.22-0.05-0.41-0.15-0.59c-0.1-0.17-0.23-0.31-0.41-0.41c-0.17-0.1-0.37-0.15-0.58-0.15c-0.22,0-0.41,0.05-0.58,0.15
			c-0.17,0.1-0.31,0.23-0.41,0.41c-0.1,0.17-0.15,0.37-0.15,0.59c0,0.22,0.05,0.41,0.15,0.59c0.1,0.17,0.23,0.31,0.41,0.41
			c0.17,0.1,0.37,0.15,0.58,0.15C126.98,40.89,127.18,40.84,127.35,40.74z"/>
	</g>
	<g>
		<path class="st0" d="M44.06,30.88h4.67V12.3h3.09v21.69H40.97v-6.2h3.09V30.88z"/>
		<path class="st0" d="M61.29,12.3h3.09v21.69H53.53V12.3h3.09v18.58h4.67V12.3z"/>
		<path class="st0" d="M76.75,33.99H65.93V12.3h10.82v3.12h-7.73v9.3l6.2-1.74v3.08l-6.2,1.74v3.08h7.73V33.99z"/>
		<path class="st0" d="M78.34,33.99V12.3h10.85v4.65H86.1v-1.53h-4.67v15.46h4.67v-4.31l-3.12,0.72v-3.12l6.2-1.65v11.48H78.34z"/>
		<path class="st0" d="M101.59,33.99H90.74V12.3h10.85V33.99z M98.5,15.41h-4.67v15.46h4.67V15.41z"/>
		<path class="st0" d="M103.15,12.3h10.85v13.42l-7.76,2.07v6.2h-3.09V12.3z M106.23,24.7l4.67-1.37v-7.92h-4.67V24.7z"/>
		<path class="st0" d="M126.4,33.99h-10.85V12.3h10.85V33.99z M123.31,15.41h-4.67v15.46h4.67V15.41z"/>
		<path class="st0" d="M138.8,33.99h-10.85V12.3h3.09v18.58h7.76V33.99z"/>
		<path class="st0" d="M143.45,12.3v21.69h-3.09V12.3H143.45z"/>
	</g>
	<g>
		<g>
			<path class="st0" d="M22.43,21.28c-3.34,0-6.05,2.72-6.05,6.05c0,3.34,2.72,6.05,6.05,6.05s6.05-2.72,6.05-6.05
				C28.48,23.99,25.76,21.28,22.43,21.28z M22.43,32.35c-2.77,0-5.02-2.25-5.02-5.02s2.25-5.02,5.02-5.02s5.02,2.25,5.02,5.02
				S25.19,32.35,22.43,32.35z"/>
			<path class="st0" d="M30.92,28.81l0.46-0.2c1.4-0.61,5-2.7,4.88-4.99c-0.07-1.44-1.66-3.65-8.79-5.95l-0.69-0.22l0.44-0.58
				c0.78-1.02,1.19-2.25,1.19-3.54c0-3.2-2.6-5.82-5.8-5.86c-3.19,0.03-5.79,2.66-5.79,5.86c0,1.29,0.41,2.51,1.19,3.54l0.44,0.58
				l-0.69,0.22c-7.13,2.3-8.72,4.51-8.79,5.95c-0.12,2.29,3.48,4.38,4.88,4.99l0.46,0.2L8.67,42.85h9.04l4.9-6.2l4.9,6.2h9.04
				L30.92,28.81z M22.43,34.41c-3.91,0-7.09-3.18-7.09-7.09c0-3.91,3.18-7.09,7.09-7.09s7.09,3.18,7.09,7.09
				C29.51,31.24,26.33,34.41,22.43,34.41z"/>
			<path class="st0" d="M33.55,29.82c1.87-1.06,4.92-3.28,4.77-6.31c-0.14-2.8-2.9-5.17-8.43-7.2c0.38-0.94,0.58-1.95,0.58-2.99
				c0-4.33-3.52-7.88-7.88-7.92c-4.33,0.04-7.85,3.6-7.85,7.92c0,1.04,0.2,2.05,0.58,2.99c-5.53,2.03-8.29,4.4-8.43,7.2
				c-0.15,3.03,2.9,5.24,4.77,6.31l-6.06,15.1h13.1l3.9-4.93l3.9,4.93h13.1L33.55,29.82z M22.61,38.32l-4.4,5.56H7.14l5.84-14.54
				c-1.35-0.67-5.19-2.85-5.05-5.78c0.13-2.52,3.02-4.7,8.85-6.67c-0.65-1.07-1-2.3-1-3.57c0-3.76,3.06-6.85,6.82-6.89
				c3.77,0.04,6.83,3.13,6.83,6.89c0,1.28-0.34,2.5-1,3.57c5.83,1.97,8.72,4.15,8.85,6.67c0.15,2.92-3.69,5.1-5.05,5.78l5.84,14.54
				H27.01L22.61,38.32z"/>
		</g>
		<g>
			<path class="st0" d="M21.75,29.49h1.35v-5.36h0.89v6.26h-3.13V28.6h0.89V29.49z"/>
		</g>
	</g>
</g>
</svg>
